<svg width="100" height="100" viewBox="0 0 100 100" fill="none" xmlns="http://www.w3.org/2000/svg">
<path d="M61.9639 10.4066L60.6698 15.2362" stroke="#677892" stroke-linecap="round"/>
<path d="M72.2799 14.7799L69.7799 19.11" stroke="#677892" stroke-opacity="0.4" stroke-linecap="round"/>
<path d="M80.3154 20.7799L76.7799 24.3154" stroke="#677892" stroke-opacity="0.4" stroke-linecap="round"/>
<path d="M86.11 29.7799L81.7799 32.2799" stroke="#677892" stroke-opacity="0.4" stroke-linecap="round"/>
<path d="M90.6095 39.7799L85.7799 41.074" stroke="#677892" stroke-opacity="0.4" stroke-linecap="round"/>
<path d="M91.7799 49.7799H86.7799" stroke="#677892" stroke-opacity="0.4" stroke-linecap="round"/>
<path d="M90.6095 61.074L85.7799 59.7799" stroke="#677892" stroke-opacity="0.4" stroke-linecap="round"/>
<path d="M87.0293 70.9198L82.6992 68.4198" stroke="#677892" stroke-opacity="0.4" stroke-linecap="round"/>
<path d="M11.5305 70.9198L15.8606 68.4198" stroke="#677892" stroke-opacity="0.4" stroke-linecap="round"/>
<path d="M18.634 79.5621L22.2386 76.097" stroke="#677892" stroke-linecap="round"/>
<path d="M81.3145 79.4795L77.5581 76.1796" stroke="#677892" stroke-linecap="round"/>
<path d="M7.4066 60.9639L12.2362 59.6698" stroke="#677892" stroke-opacity="0.4" stroke-linecap="round"/>
<path d="M6 50.2799H11" stroke="#677892" stroke-opacity="0.4" stroke-linecap="round"/>
<path d="M7.7799 39.7799L12.6095 41.074" stroke="#677892" stroke-opacity="0.4" stroke-linecap="round"/>
<path d="M11.7799 29.7799L16.11 32.2799" stroke="#677892" stroke-opacity="0.4" stroke-linecap="round"/>
<path d="M18.0906 21.0906L21.6261 24.6261" stroke="#677892" stroke-opacity="0.4" stroke-linecap="round"/>
<path d="M26.7799 14.7799L29.2799 19.11" stroke="#677892" stroke-opacity="0.4" stroke-linecap="round"/>
<path d="M36.5959 10.4066L37.89 15.2362" stroke="#677892" stroke-opacity="0.4" stroke-linecap="round"/>
<path d="M49.2799 8V13" stroke="#677892" stroke-opacity="0.4" stroke-linecap="round"/>
</svg>
