<?xml version="1.0" encoding="UTF-8"?>
<svg width="100" height="100" fill="none" version="1.1" viewBox="0 0 100 100" xmlns="http://www.w3.org/2000/svg">
 <path d="m61.964 10.407-1.2941 4.8296" stroke="#2d343f" stroke-linecap="round"/>
 <g stroke="#2e3441" stroke-linecap="round" stroke-opacity=".57547">
  <path d="m72.28 14.78-2.5 4.3301"/>
  <path d="m80.315 20.78-3.5355 3.5355"/>
  <path d="m86.11 29.78-4.3301 2.5"/>
  <path d="m90.61 39.78-4.8296 1.2941"/>
  <path d="m91.78 49.78h-5"/>
  <path d="m90.61 61.074-4.8296-1.2941"/>
  <path d="m87.029 70.92-4.3301-2.5"/>
  <path d="m11.53 70.92 4.3301-2.5"/>
 </g>
 <path d="m18.634 79.562 3.6046-3.4651" stroke="#2d343f" stroke-linecap="round"/>
 <path d="m81.314 79.48-3.7564-3.2999" stroke="#2d343f" stroke-linecap="round"/>
 <g stroke="#2e3441" stroke-linecap="round" stroke-opacity=".57547">
  <path d="m7.4066 60.964 4.8296-1.2941"/>
  <path d="m6 50.28h5"/>
  <path d="m7.7799 39.78 4.8296 1.2941"/>
  <path d="m11.78 29.78 4.3301 2.5"/>
  <path d="m18.091 21.091 3.5355 3.5355"/>
  <path d="m26.78 14.78 2.5 4.3301"/>
  <path d="m36.596 10.407 1.2941 4.8296"/>
  <path d="m49.28 8v5"/>
 </g>
</svg>
