<svg width="116" height="75" viewBox="0 0 116 75" fill="none" xmlns="http://www.w3.org/2000/svg">
<path d="M69.9639 7.40659L68.6698 12.2362" stroke="#ABACAE" stroke-linecap="round"/>
<path d="M80.2799 11.7799L77.7799 16.11" stroke="#ABACAE" stroke-linecap="round"/>
<path d="M88.3154 17.7799L84.7799 21.3154" stroke="#ABACAE" stroke-linecap="round"/>
<path d="M94.11 26.7799L89.7799 29.2799" stroke="#ABACAE" stroke-linecap="round"/>
<path d="M98.6095 36.7799L93.7799 38.074" stroke="#ABACAE" stroke-linecap="round"/>
<path d="M99.7799 46.7799H94.7799" stroke="#ABACAE" stroke-linecap="round"/>
<path d="M98.6095 58.074L93.7799 56.7799" stroke="#ABACAE" stroke-linecap="round"/>
<path d="M95.0293 67.9198L90.6992 65.4198" stroke="#ABACAE" stroke-linecap="round"/>
<path d="M19.5305 67.9198L23.8606 65.4198" stroke="#ABACAE" stroke-linecap="round"/>
<path d="M15.4066 57.9639L20.2362 56.6698" stroke="#ABACAE" stroke-linecap="round"/>
<path d="M14 47.2799H19" stroke="#ABACAE" stroke-linecap="round"/>
<path d="M15.7799 36.7799L20.6095 38.074" stroke="#ABACAE" stroke-linecap="round"/>
<path d="M19.7799 26.7799L24.11 29.2799" stroke="#ABACAE" stroke-linecap="round"/>
<path d="M26.0906 18.0906L29.6261 21.6261" stroke="#ABACAE" stroke-linecap="round"/>
<path d="M34.7799 11.7799L37.2799 16.11" stroke="#ABACAE" stroke-linecap="round"/>
<path d="M44.5959 7.40659L45.89 12.2362" stroke="#ABACAE" stroke-linecap="round"/>
<path d="M57.2799 5V10" stroke="#7E8087" stroke-linecap="round"/>
</svg>
